<?xml version="1.0" encoding="UTF-8"?><svg id="Layer_2" xmlns="http://www.w3.org/2000/svg" xmlns:xlink="http://www.w3.org/1999/xlink" viewBox="0 0 1000 1000"><defs><style>.cls-1{fill:none;}.cls-2{clip-path:url(#clippath);}.cls-3{fill:#fffefd;}.cls-4{clip-path:url(#clippath-1);}</style><clipPath id="clippath"><rect class="cls-1" x="152.74" y="166.28" width="694.51" height="671.4"/></clipPath><clipPath id="clippath-1"><rect class="cls-1" x="152.74" y="166.28" width="694.51" height="671.4"/></clipPath></defs><g id="Layer_1-2"><g><rect width="1000" height="1000" rx="134.28" ry="134.28"/><g id="Artwork_13"><g class="cls-2"><g class="cls-4"><path class="cls-3" d="M362.94,742.32l-176.56-89.63c-22.24-11.29-35.45-34.91-33.43-59.78l22.15-273.55c.32-4.22,4-7.38,8.22-7.05,2.76,.21,5.2,1.9,6.36,4.41l192.19,407.18c3.29,6.98,.3,15.3-6.67,18.58-3.9,1.84-8.42,1.77-12.26-.17"/><path class="cls-3" d="M815.4,651.75l-178.39,90.57c-6.89,3.46-15.29,.68-18.75-6.21-1.91-3.8-1.98-8.27-.19-12.13l192.08-407.25c1.78-3.83,6.33-5.5,10.17-3.72,2.51,1.16,4.2,3.6,4.41,6.36l22.33,275.68c1.9,23.57-10.6,45.96-31.67,56.71"/><path class="cls-3" d="M690.11,439.69c-54.06,113.32-163.22,397.99-190.13,397.99s-136.07-284.67-190.13-397.99c-4.28-8.91-3.74-19.4,1.43-27.83l147.56-241.96c1.37-2.26,3.83-3.65,6.48-3.62,4.16,0,7.51,3.39,7.51,7.54V446.29c-6.86,4.22-12.62,10.01-16.84,16.84-15.03,24.36-7.49,56.26,16.84,71.29,8.47,5.23,17.85,7.72,27.15,7.72s18.68-2.5,27.15-7.72c24.33-15.03,31.87-46.93,16.84-71.29-4.22-6.83-9.98-12.62-16.84-16.84V173.82c0-4.16,3.36-7.54,7.51-7.54,2.64-.03,5.11,1.37,6.48,3.62l147.56,241.96c5.17,8.44,5.7,18.92,1.43,27.83"/></g></g></g></g></g></svg>